<svg width="32" height="268" viewBox="0 0 32 268" fill="none" xmlns="http://www.w3.org/2000/svg">
<path fill-rule="evenodd" clip-rule="evenodd" d="M0 10.9855L7.09801e-07 20.0145C4.4617 20.2733 8.00001 23.9734 8.00001 28.5C8.00001 33.0266 4.4617 36.7267 2.04397e-06 36.9855L2.75377e-06 46.0145C4.4617 46.2733 8.00001 49.9734 8.00001 54.5C8.00001 59.0266 4.4617 62.7267 4.08794e-06 62.9855L4.79774e-06 72.0145C4.4617 72.2733 8.00001 75.9734 8.00001 80.5C8.00001 85.0266 4.4617 88.7267 6.13191e-06 88.9855L6.84171e-06 98.0145C4.4617 98.2733 8.00001 101.973 8.00001 106.5C8.00001 111.027 4.4617 114.727 8.17588e-06 114.986L8.80713e-06 123.015C4.4617 123.289 8.00001 127.207 8.00001 132C8.00001 136.793 4.4617 140.711 1.0851e-05 140.985V149.014C4.4617 149.273 8.00001 152.973 8.00001 157.5C8.00001 162.027 4.4617 165.727 1.0851e-05 165.986V175.014C4.4617 175.273 8.00001 178.973 8.00001 183.5C8.00001 188.027 4.4617 191.727 1.0851e-05 191.986V201.014C4.4617 201.273 8.00001 204.973 8.00001 209.5C8.00001 214.027 4.4617 217.727 1.0851e-05 217.986V227.014C4.4617 227.273 8.00001 230.973 8.00001 235.5C8.00001 240.027 4.4617 243.727 1.0851e-05 243.986V253.014C4.4617 253.273 8.00001 256.973 8.00001 261.5C8.00001 264.108 6.82591 266.441 4.97753 268H32L32 0H7.62641C7.86929 0.790422 8.00001 1.62995 8.00001 2.5C8.00001 7.02658 4.46169 10.7267 0 10.9855Z" fill="white"/>
</svg>
